<svg width="128" height="128" xmlns="http://www.w3.org/2000/svg">

 <g>
  <title>background</title>
  <rect fill="none" id="canvas_background" height="16" width="16" y="-1" x="-1"/>
 </g>
 <g>
  <title>Layer 1</title>
  <path fill="none" clip-rule="evenodd" fill-rule="evenodd" id="XMLID_11_" d="m64,4c33.1,0 60,26.9 60,60s-26.9,60 -60,60s-60,-26.9 -60,-60s26.9,-60 60,-60l0,0zm0,-4c-35.3,0 -64,28.7 -64,64c0,35.3 28.7,64 64,64c35.3,0 64,-28.7 64,-64c0,-35.3 -28.7,-64 -64,-64z" class="st0"/>
  <path fill="#000000" clip-rule="evenodd" fill-rule="evenodd" id="XMLID_8_" d="m55.5,66.5l30.6,-30.5c4.7,-4.7 12.3,-4.7 17,0c4.7,4.7 4.7,12.3 0,17c-13.1,13 -26.1,26 -39.1,39c-4.5,4.5 -11.6,4.7 -16.3,0.6c-0.2,-0.2 -0.5,-0.3 -0.7,-0.6l-22,-22.2c-4.7,-4.7 -4.7,-12.3 0,-17c4.7,-4.7 12.3,-4.7 17,0l13.5,13.7l0,0zm0,5.7l-16.4,-16.5c-3.1,-3.1 -8.2,-3.1 -11.3,0c-3.1,3.1 -3.1,8.2 0,11.3l22,22.2l0,-0.1l0.86953,0.28984c11.21563,-10.52265 7.33047,2.81016 10.43047,-0.28984c29.9,-29.7 9.3,-9.1 39.1,-39c3.1,-3.1 3.1,-8.2 0,-11.3c-3.1,-3.1 -8.2,-3.1 -11.3,0l-33.4,33.4z" class="st0"/>
  <path fill="#000000" clip-rule="evenodd" fill-rule="evenodd" id="XMLID_1_" d="m55.432613,71.62031l33.4,-33.4c3.1,-3.1 8.2,-3.1 11.3,0c3.1,3.1 5.99844,6.17109 2.89844,9.27109c-30.95938,35.98672 -11.51875,13.9375 -41.41875,43.7375c-3.1,3.1 -8.77969,2.23047 -11.87969,-2.60859l-0.57968,0.57969l-0.86952,1.25936l-21.13048,-23.64921c-4.83907,-1.07108 -3.6797,-6.46093 0.57968,-11.58984c4.25938,-5.12891 9.64922,-2.23047 12.74922,1.73906l14.95078,14.66094z" class="st1"/>
 </g>
</svg>